<svg xmlns="http://www.w3.org/2000/svg" width="21" height="22" viewBox="0 0 21 22"><path d="M19.3 2h-2.8V0.6c0-0.4-0.3-0.7-0.7-0.7 -0.4 0-0.7 0.3-0.7 0.7v1.4h-3.9V0.6c0-0.4-0.3-0.7-0.7-0.7 -0.4 0-0.7 0.3-0.7 0.7v1.4H5.9V0.6c0-0.4-0.3-0.7-0.7-0.7 -0.4 0-0.7 0.3-0.7 0.7v1.4H1.8C0.8 2 0 2.8 0 3.9v16.3C0 21.2 0.8 22 1.8 22h17.5C20.2 22 21 21.2 21 20.2V3.9C21 2.8 20.2 2 19.3 2zM19.7 20.2c0 0.3-0.2 0.5-0.4 0.5H1.8c-0.2 0-0.4-0.2-0.4-0.5V3.9c0-0.3 0.2-0.5 0.4-0.5h2.8v1.4c0 0.4 0.3 0.7 0.7 0.7 0.4 0 0.7-0.3 0.7-0.7V3.4h3.9v1.4c0 0.4 0.3 0.7 0.7 0.7 0.4 0 0.7-0.3 0.7-0.7V3.4h3.9v1.4c0 0.4 0.3 0.7 0.7 0.7 0.4 0 0.7-0.3 0.7-0.7V3.4h2.8c0.2 0 0.4 0.2 0.4 0.5V20.2z"/><rect x="4.6" y="8.2" width="2.6" height="2.1"/><rect x="4.6" y="11.7" width="2.6" height="2.1"/><rect x="4.6" y="15.1" width="2.6" height="2.1"/><rect x="9.2" y="15.1" width="2.6" height="2.1"/><rect x="9.2" y="11.7" width="2.6" height="2.1"/><rect x="9.2" y="8.2" width="2.6" height="2.1"/><rect x="13.8" y="15.1" width="2.6" height="2.1"/><rect x="13.8" y="11.7" width="2.6" height="2.1"/><rect x="13.8" y="8.2" width="2.6" height="2.1"/></svg>